<svg xmlns="http://www.w3.org/2000/svg" version="1.1" xmlns:xlink="http://www.w3.org/1999/xlink" xmlns:svgjs="http://svgjs.dev/svgjs" width="1500" height="1500" viewBox="0 0 1500 1500"><rect width="1500" height="1500" fill="#000000"></rect><g transform="matrix(0.6666666666666666,0,0,0.6666666666666666,249.39393939393938,613.6665321315768)"><svg viewBox="0 0 396 108" data-background-color="#ffffff" preserveAspectRatio="xMidYMid meet" height="409" width="1500" xmlns="http://www.w3.org/2000/svg" xmlns:xlink="http://www.w3.org/1999/xlink"><g id="tight-bounds" transform="matrix(1,0,0,1,0.2400000000000091,0.00005328773730184366)"><svg viewBox="0 0 395.52 107.9998934245254" height="107.9998934245254" width="395.52"><g><svg viewBox="0 0 397.4975999999999 108.53989289164801" height="107.9998934245254" width="395.52"><g><rect width="397.4975999999999" height="3.324433563648" x="0" y="59.648753664" fill="#ffffff" opacity="1" stroke-width="0" stroke="transparent" fill-opacity="1" class="rect-qz-0" data-fill-palette-color="secondary" rx="1%" id="qz-0" data-palette-color="#77d4fc"></rect></g><g transform="matrix(1,0,0,1,0.9887999999999693,71.675892891648)"><svg viewBox="0 0 395.52 36.864" height="36.864" width="395.52"><g id="textblocktransform"><svg viewBox="0 0 395.52 36.864" height="36.864" width="395.52" id="textblock"><g><svg viewBox="0 0 395.52 36.864" height="36.864" width="395.52"><g transform="matrix(1,0,0,1,0,0)"><svg width="395.52" viewBox="2.1 -39.9 437.71999999999997 40.8" height="36.864" data-palette-color="#1f2937"><path d="M2.1-16.45L2.1-37.5 14.1-37.5 14.1-9.35 18.35-9.35Q20.65-9.35 21.48-9.95 22.3-10.55 22.3-12.55L22.3-12.55 22.3-37.5 34.3-37.5 34.3-16.45Q34.3-11.65 33.68-8.35 33.05-5.05 31.28-2.98 29.5-0.9 26.35 0 23.2 0.9 18.2 0.9L18.2 0.9Q13.2 0.9 10.05 0 6.9-0.9 5.13-2.95 3.35-5 2.73-8.33 2.1-11.65 2.1-16.45L2.1-16.45ZM51.4 0L39.4 0 39.4-30 45.4-30 48.7-26.65Q52.3-29.95 57.6-30.9L57.6-30.9 58.3-19.55Q57.6-19.55 56.6-19.35 55.6-19.15 54.57-18.85 53.55-18.55 52.7-18.13 51.85-17.7 51.4-17.15L51.4-17.15 51.4 0ZM61.9-1.5L61.9-1.5 61.9-39 73.9-39.9 73.9-29.95Q76.09-30.9 79.9-30.9L79.9-30.9Q83.5-30.9 85.95-29.6 88.4-28.3 89.92-26.13 91.45-23.95 92.12-21.05 92.8-18.15 92.8-15L92.8-15Q92.8-6.55 88.9-2.83 85 0.9 77.09 0.9L77.09 0.9Q69.2 0.9 61.9-1.5ZM73.9-19.9L73.9-19.9 73.9-7.85 75.75-7.85Q77.95-7.85 78.92-8.3 79.9-8.75 79.9-10.4L79.9-10.4 79.9-22.15 78.05-22.15Q76.75-22.15 75.95-22.05 75.15-21.95 74.55-21.4L74.55-21.4Q73.95-20.9 73.9-19.9ZM111.79-30.9L111.79-30.9Q126.19-30.9 126.19-21L126.19-21 126.19 0 120.19 0 116.79-3.4Q115.89-2.4 114.67-1.6 113.44-0.8 112.04-0.25 110.64 0.3 109.19 0.6 107.74 0.9 106.39 0.9L106.39 0.9Q103.84 0.9 101.82 0.38 99.79-0.15 98.39-1.3 96.99-2.45 96.24-4.35 95.49-6.25 95.49-9L95.49-9Q95.49-19.8 111.79-19.8L111.79-19.8 114.19-19.8 114.19-21.95Q113.24-22 112.47-22.05 111.69-22.1 111.04-22.1L111.04-22.1Q104.29-22.1 99.39-20.45L99.39-20.45 97.94-29.05Q103.94-30.9 111.79-30.9ZM107.59-10.3L107.59-10.3 107.59-7.85 110.09-7.85Q112.69-7.85 113.49-8.45L113.49-8.45Q114.19-9.1 114.19-10L114.19-10 114.19-12.85 111.74-12.85Q109.59-12.85 108.59-12.4 107.59-11.95 107.59-10.3ZM131.59 0L131.59-30 137.59-30 140.59-27Q146.14-30.9 152.59-30.9L152.59-30.9Q156.84-30.9 159.22-29.08 161.59-27.25 161.59-24L161.59-24 161.59 0 149.59 0 149.59-21 147.74-21Q145.69-21 144.64-20.58 143.59-20.15 143.59-18.7L143.59-18.7 143.59 0 131.59 0ZM208.99-27.9L208.99-37.5 179.59-37.5 179.59-27.9 188.29-27.9 188.29 0 200.29 0 200.29-27.9 208.99-27.9ZM224.28 0L212.28 0 212.28-30 218.28-30 221.58-26.65Q225.18-29.95 230.48-30.9L230.48-30.9 231.18-19.55Q230.48-19.55 229.48-19.35 228.48-19.15 227.46-18.85 226.43-18.55 225.58-18.13 224.73-17.7 224.28-17.15L224.28-17.15 224.28 0ZM248.98-30.9L248.98-30.9Q263.38-30.9 263.38-21L263.38-21 263.38 0 257.38 0 253.98-3.4Q253.08-2.4 251.86-1.6 250.63-0.8 249.23-0.25 247.83 0.3 246.38 0.6 244.93 0.9 243.58 0.9L243.58 0.9Q241.03 0.9 239.01 0.38 236.98-0.15 235.58-1.3 234.18-2.45 233.43-4.35 232.68-6.25 232.68-9L232.68-9Q232.68-19.8 248.98-19.8L248.98-19.8 251.38-19.8 251.38-21.95Q250.43-22 249.66-22.05 248.88-22.1 248.23-22.1L248.23-22.1Q241.48-22.1 236.58-20.45L236.58-20.45 235.13-29.05Q241.13-30.9 248.98-30.9ZM244.78-10.3L244.78-10.3 244.78-7.85 247.28-7.85Q249.88-7.85 250.68-8.45L250.68-8.45Q251.38-9.1 251.38-10L251.38-10 251.38-12.85 248.93-12.85Q246.78-12.85 245.78-12.4 244.78-11.95 244.78-10.3ZM268.78 0L268.78-30 274.78-30 277.78-27Q283.33-30.9 289.78-30.9L289.78-30.9Q294.03-30.9 296.4-29.08 298.78-27.25 298.78-24L298.78-24 298.78 0 286.78 0 286.78-21 284.93-21Q282.88-21 281.83-20.58 280.78-20.15 280.78-18.7L280.78-18.7 280.78 0 268.78 0ZM307.38-28.8L307.38-28.8Q311.23-30.9 317.93-30.9L317.93-30.9Q324.68-30.9 330.28-29.05L330.28-29.05 328.88-20.9Q326.53-21.6 324.23-21.9 321.93-22.2 319.53-22.2L319.53-22.2Q318.83-22.2 317.8-22.15 316.78-22.1 315.48-21.95L315.48-21.95 315.48-20.05Q318.23-20.05 321.13-19.78 324.03-19.5 326.4-18.48 328.78-17.45 330.3-15.43 331.83-13.4 331.83-9.9L331.83-9.9Q331.83-7.45 331.28-5.53 330.73-3.6 329.58-2.45L329.58-2.45Q328.38-1.3 327.1-0.6 325.83 0.1 323.78 0.4L323.78 0.4Q322.18 0.65 320.35 0.78 318.53 0.9 316.43 0.9L316.43 0.9Q309.08 0.9 302.98-0.85L302.98-0.85 304.48-9.35Q307.03-8.6 309.73-8.2 312.43-7.8 315.38-7.8L315.38-7.8Q316.73-7.8 317.95-7.85 319.18-7.9 320.33-8.05L320.33-8.05 320.33-9.95Q315.53-9.95 312.3-10.58 309.08-11.2 307.1-12.5 305.13-13.8 304.3-15.9 303.48-18 303.48-20.9L303.48-20.9Q303.48-26.7 307.38-28.8ZM336.02-5.65L336.02-39 348.02-39.9 348.02-8.6Q348.97-8.4 349.72-8.3 350.47-8.2 350.97-8.15L350.97-8.15 350.42 0.65Q342.77 0.65 340.27-0.25L340.27-0.25Q338.17-1 337.1-2.2 336.02-3.4 336.02-5.65L336.02-5.65ZM368.77-30.9L368.77-30.9Q383.17-30.9 383.17-21L383.17-21 383.17 0 377.17 0 373.77-3.4Q372.87-2.4 371.65-1.6 370.42-0.8 369.02-0.25 367.62 0.3 366.17 0.6 364.72 0.9 363.37 0.9L363.37 0.9Q360.82 0.9 358.8 0.38 356.77-0.15 355.37-1.3 353.97-2.45 353.22-4.35 352.47-6.25 352.47-9L352.47-9Q352.47-19.8 368.77-19.8L368.77-19.8 371.17-19.8 371.17-21.95Q370.22-22 369.45-22.05 368.67-22.1 368.02-22.1L368.02-22.1Q361.27-22.1 356.37-20.45L356.37-20.45 354.92-29.05Q360.92-30.9 368.77-30.9ZM364.57-10.3L364.57-10.3 364.57-7.85 367.07-7.85Q369.67-7.85 370.47-8.45L370.47-8.45Q371.17-9.1 371.17-10L371.17-10 371.17-12.85 368.72-12.85Q366.57-12.85 365.57-12.4 364.57-11.95 364.57-10.3ZM389.77-5.65L389.77-22.25 386.77-22.25 386.77-30 389.77-30 389.77-34.8 401.77-37.8 401.77-30 405.92-30 405.92-22.25 401.77-22.25 401.77-8.6Q402.52-8.45 403.42-8.33 404.32-8.2 405.32-8.15L405.32-8.15 404.77 0.65Q396.57 0.65 394.07-0.25L394.07-0.25Q391.97-1 390.87-2.18 389.77-3.35 389.77-5.65L389.77-5.65ZM422.12-10.2L422.12-10.2 422.12-8.1Q423.02-8 423.92-7.95 424.82-7.9 425.72-7.9L425.72-7.9Q431.32-7.9 437.02-9.7L437.02-9.7 438.42-0.9Q431.67 0.9 425.12 0.9L425.12 0.9Q416.72 0.9 412.97-3.03 409.22-6.95 409.22-15L409.22-15Q409.22-23.05 412.99-26.98 416.77-30.9 425.12-30.9L425.12-30.9Q429.32-30.9 432.12-30.38 434.92-29.85 436.64-28.63 438.37-27.4 439.09-25.33 439.82-23.25 439.82-20.1L439.82-20.1Q439.82-17.5 438.94-15.63 438.07-13.75 436.02-12.55 433.97-11.35 430.57-10.78 427.17-10.2 422.12-10.2ZM422.12-19.6L422.12-19.6 422.12-17.15 424.57-17.15Q426.77-17.15 427.74-17.6 428.72-18.05 428.72-19.7L428.72-19.7 428.72-22.15 426.27-22.15Q424.07-22.15 423.09-21.7 422.12-21.25 422.12-19.6Z" opacity="1" transform="matrix(1,0,0,1,0,0)" fill="#ffffff" class="wordmark-text-0" data-fill-palette-color="primary" id="text-0"></path></svg></g></svg></g></svg></g></svg></g><g transform="matrix(1,0,0,1,165.99436197245666,0)"><svg viewBox="0 0 65.50887605508663 50.946048" height="50.946048" width="65.50887605508663"><g><svg xmlns="http://www.w3.org/2000/svg" xmlns:xlink="http://www.w3.org/1999/xlink" version="1.1" x="8.000000000000004" y="0" viewBox="23.75 22.988 52.5 54.024" enable-background="new 0 0 100 100" xml:space="preserve" height="50.946048" width="49.508876055086624" class="icon-icon-0" data-fill-palette-color="accent" id="icon-0"><g fill="#77d4fc" data-fill-palette-color="accent"><path d="M50 22.988c-14.474 0-26.25 11.775-26.25 26.25 0 7.918 1.919 12.812 6.841 17.425 0.252 0.681-0.182 3.512-0.417 5.046-0.473 3.088-0.585 4.142-0.093 4.802 0.192 0.259 0.47 0.425 0.782 0.468 0.158 0.022 0.322 0.033 0.492 0.033 1.719 0 3.917-1.144 5.857-2.151 1.026-0.534 2.423-1.26 2.917-1.293 3.136 1.274 6.457 1.92 9.871 1.92 14.475 0 26.25-11.775 26.25-26.249C76.25 34.764 64.475 22.988 50 22.988zM50 73.487c-3.178 0-6.268-0.605-9.183-1.8-0.942-0.381-2.235 0.207-4.527 1.398-1.478 0.768-3.28 1.705-4.524 1.892 0.042-0.732 0.234-1.986 0.384-2.966 0.618-4.032 0.792-5.891-0.135-6.755-4.306-4.015-6.098-8.298-6.25-15.056 0-0.018 0.01-0.032 0.01-0.05 0-0.02-0.01-0.037-0.012-0.057-0.005-0.284-0.013-0.564-0.013-0.856 0-13.372 10.878-24.25 24.25-24.25 13.371 0 24.25 10.878 24.25 24.25C74.25 62.609 63.371 73.487 50 73.487z" fill="#ffffff" data-fill-palette-color="accent"></path><path d="M71.69 49.151h-6.204c-0.097-5.524-0.964-9.877-1.344-11.533 1.106-0.07 2.204-0.145 3.268-0.219 0.551-0.039 0.966-0.518 0.927-1.068s-0.522-0.961-1.067-0.927c-1.163 0.082-2.364 0.162-3.578 0.238l-1.139-4.13c-0.148-0.533-0.703-0.839-1.231-0.694-0.532 0.148-0.843 0.7-0.694 1.231l1.036 3.716c-4.048 0.233-7.625 0.361-10.663 0.382v-8.396c0-0.553-0.448-1-1-1s-1 0.447-1 1v8.39c-3.064-0.025-6.386-0.128-9.753-0.301 0.415-1.778 1.167-4.466 1.176-4.499 0.149-0.532-0.161-1.084-0.693-1.233-0.533-0.151-1.084 0.161-1.233 0.693-0.042 0.148-0.87 3.109-1.276 4.932-1.559-0.086-3.087-0.179-4.542-0.279-0.548-0.037-1.028 0.377-1.067 0.928-0.038 0.552 0.377 1.029 0.928 1.067 1.374 0.095 2.814 0.183 4.28 0.265-0.403 1.671-1.221 5.734-1.309 11.438H28.3c-0.552 0-1 0.448-1 1 0 0.553 0.448 1 1 1h7.211c0.088 5.718 0.905 9.771 1.309 11.438-1.087 0.063-2.165 0.13-3.21 0.204-0.551 0.038-0.966 0.517-0.927 1.067 0.037 0.527 0.476 0.93 0.997 0.93 0.023 0 0.047-0.001 0.071-0.003 1.143-0.08 2.323-0.153 3.518-0.221l0.755 3.633c0.102 0.469 0.516 0.788 0.976 0.788 0.07 0 0.142-0.007 0.213-0.022 0.54-0.117 0.882-0.65 0.765-1.189l-0.72-3.316c3.545-0.184 6.812-0.285 9.743-0.302v7.023c0 0.553 0.448 1 1 1s1-0.447 1-1v-7.023c3.215 0.026 6.817 0.145 10.551 0.346l-0.838 2.26c-0.192 0.518 0.072 1.093 0.59 1.285 0.114 0.043 0.232 0.062 0.348 0.062 0.406 0 0.788-0.249 0.938-0.652l1.051-2.833 2.607 0.163c0.542 0.027 1.025-0.384 1.062-0.935 0.035-0.551-0.384-1.026-0.935-1.062l-2.17-0.136c0.427-1.53 1.209-5.184 1.286-11.506h6.201c0.553 0 1-0.447 1-1C72.69 49.6 72.243 49.151 71.69 49.151zM51 38.147c3.16-0.021 6.89-0.156 11.116-0.404 0.29 1.211 1.264 5.693 1.369 11.408H51V38.147zM38.855 37.824c3.497 0.184 6.958 0.292 10.145 0.317v11.01H37.512C37.61 43.196 38.543 39.05 38.855 37.824zM38.855 62.479c-0.312-1.222-1.246-5.354-1.343-11.327H49v11.007C45.952 62.175 42.55 62.282 38.855 62.479zM62.152 62.535c-3.945-0.221-7.761-0.35-11.152-0.377V51.151h12.488C63.4 58.047 62.442 61.615 62.152 62.535z" fill="#ffffff" data-fill-palette-color="accent"></path></g></svg></g></svg></g><g><rect width="89.46124197245668" height="3.324433563648" y="46.621614436352" x="231.5032380275433" fill="#ffffff" data-fill-palette-color="secondary"></rect><rect width="89.46124197245668" height="3.324433563648" y="46.621614436352" x="76.53311999999997" fill="#ffffff" data-fill-palette-color="secondary"></rect></g></svg></g><defs></defs></svg><rect width="395.52" height="107.9998934245254" fill="none" stroke="none" visibility="hidden"></rect></g></svg></g></svg>